<svg id="Слой_1" data-name="Слой 1" xmlns="http://www.w3.org/2000/svg" viewBox="0 0 150 190"><defs><style>.cls-1{fill-rule:evenodd;}</style></defs><title>Монтажная область 23</title><path class="cls-1" d="M36.76,133.22s-1.9-16.34-1.86-18.29c.14-6.39,2.16-10.13,6.42-11.43,1-3,2.8-8.14,4.12-11.24,2.45-5.75,6.85-11.63,21-11.63H83.09c11.66,0,17.42,3.5,21.23,12.91,1.27,3.15,2.82,7.54,3.84,10.5,4.33,1.79,6.37,5.76,6.37,11.27,0,2-1,17.34-1,17.34Zm13.41-6.51c10.43,0,10.5-16.31-.18-16.31S38.75,126.71,50.17,126.71Zm47.77-30c-2.92-7.19-5.49-9.27-14.85-9.27H66.4c-11.21,0-12.88,4-14.62,8.09-.83,2-1.89,4.87-2.8,7.46,11.3,0,41.36-.11,51.31,0C99.51,100.79,98.67,98.51,97.94,96.7Zm2.37,15.74c-8,0-8.43,12.23.14,12.23C108.27,124.67,108.32,112.44,100.31,112.44ZM55.57,142.71c0,6.87-18.78,6.87-18.78,0v-5.17l18.78-.64Zm58,0c0,6.87-18,6.87-18,0v-5.6l18,.39Z"/></svg>