<svg id="Слой_1" data-name="Слой 1" xmlns="http://www.w3.org/2000/svg" viewBox="0 0 150 190"><defs><style>.cls-1{fill-rule:evenodd;}</style></defs><title>Монтажная область 18</title><path class="cls-1" d="M117,85.5l-2.59,22.67-25.75.18L86.25,85.5c-6.1,0-8.36-3.15-8.36-9.34h8.36c.07-4.69.64-10.65,5.27-10.69,0,0,0,10.69,10.12,10.69s10.11-10.69,10.11-10.69c4.63,0,5.21,6,5.27,10.69h8.36C125.38,82.35,123.13,85.5,117,85.5ZM81.38,90c.45,3.55,2.61,22.62,2.61,22.62L101.21,114,103,147l-9.75-.37-2-19.41H83.57l-1.35,20.17-9.77-.07-1.37-19.8-28.79-.8L40.5,147.53l-8.15-.14-3.89-28.86,6.94-12.12V87.06C35.4,79.67,38.58,76,46.8,76c4.77,0,11.61.14,24.92.14C71.72,83.55,76.67,90,81.38,90Zm-22.3,57.49-8.3.27L46.27,131l10.91.47Z"/></svg>