<svg id="Слой_1" data-name="Слой 1" xmlns="http://www.w3.org/2000/svg" viewBox="0 0 150 190"><defs><style>.cls-1{fill-rule:evenodd;}</style></defs><title>Монтажная область 91</title><path class="cls-1" d="M123.56,121.18l-7.2.28c0,14.92-3.85,26.08-23.85,26.08-17.79,0-66.36-.15-66.36-.15s-.45-25.06-.45-43.17,25.53-17.66,25.65-.92l4.73.1c.89-13.5,20.5-12.68,20.8.42l24,.48C109,95.56,128.31,100.93,123.56,121.18Zm-13.07.59-9.47.28,5.19,9.63Zm-14.61.42-12.3.35,5.86,13.14Zm-17.94.51-10.3.3,5.64,10Zm-14.88.43-15,.43,7.8,12.81ZM32.83,103.58c0,7.28,11.39,7.33,11.39-.13S32.83,95.6,32.83,103.58Zm29.34.55c0,5.5,8.6,5.53,8.6-.1S62.17,98.11,62.17,104.13Z"/></svg>