<svg id="Слой_1" data-name="Слой 1" xmlns="http://www.w3.org/2000/svg" viewBox="0 0 150 190"><defs><style>.cls-1{fill-rule:evenodd;}</style></defs><title>Монтажная область 41</title><path class="cls-1" d="M98.79,138.31c-4.87,11.86-20.73,9.9-20.73,9.9l1.18-11.08a87.91,87.91,0,0,1-14.93-3.86c-5.57,5.33-14.77,2.39-14.77,2.39L52,127.52a52.27,52.27,0,0,1-7.23-5.17H41c-15.94,16.3-26.11,13.84-26.11,13.84L20,117.48,12.54,93.14s17.83.09,26.71,13.89h4.44c4.08-2.83,22.69-10.31,22.69-10.31L60,84.36c39.76,0,65,12.68,75.74,36.92C129.58,132,115.05,137.5,98.79,138.31Zm14.8-19c7.38,0,6.84-10.08.45-10.08S107.37,119.36,113.59,119.36Z"/></svg>