<svg id="Слой_1" data-name="Слой 1" xmlns="http://www.w3.org/2000/svg" viewBox="0 0 150 190"><defs><style>.cls-1{fill-rule:evenodd;}</style></defs><title>Монтажная область 12</title><path class="cls-1" d="M114.16,147.84c-20.69,0-27-19.52-20.33-32.63H89.22l-8.06,14.35H33.79l.81-7.14L49.78,121c-1.66-5.35-6.16-9.72-13.56-9.72-19.15,0-20.07,29,.32,29a13.17,13.17,0,0,0,11.54-5.94l8.31.76c-2.91,7.22-9.46,12.82-19.58,12.82-31.15,0-29.74-44.25-.5-44.25,12.12,0,19.16,7.66,21.21,16.61l6.93-.67A29.25,29.25,0,0,0,35.83,96.3c-9.12,0-13.2-4.31-13.2-9.27H48.5l5.16,5H69.4c2.25-5.81,7.17-8.2,20.32-8.2,0,0-2.51-18.34-2.86-20.33,4.24,0,6,1.84,9,7.1,4.87,8.68,9.21,16.44,9.21,16.44l-4.23,7.52,15.67,30.94-4.93,2.74L102.48,116c-7.11,8.23-3.73,24.2,11.42,24.2,18.23,0,18.72-27.74.84-28.91L112,103.65c.56,0,1.12-.06,1.71-.06C142.8,103.59,142.61,147.84,114.16,147.84Z"/></svg>