<svg id="Слой_1" data-name="Слой 1" xmlns="http://www.w3.org/2000/svg" viewBox="0 0 150 190"><defs><style>.cls-1{fill-rule:evenodd;}</style></defs><title>Монтажная область 10</title><path class="cls-1" d="M85.36,123.62C48.19,141,30.94,137.56,26.52,128.24c-2.76-5.84-.53-14,10.56-23.45.53-18.86,13.66-37.48,38.46-37.48,21.47,0,33.66,14,36.76,30.12,5.36-5.9,5.39-9.52,5.39-9.52L107.53,75.45c8.76.21,13.77,3.49,15.82,8.12C127.47,92.87,119.91,107.5,85.36,123.62Zm-47.61-10c-4.82,4.92-5.81,8.86-4.49,11.76s4.81,4.6,11.42,4.19A37.69,37.69,0,0,1,37.75,113.59Zm27.65-2.45c-9.83,3.19-8.38,9.14,2.1,5.75C77.06,113.79,75.2,108,65.4,111.14Zm11,32.69c-8.64,0-15.82-2-21.58-5.34,18.95-3.34,42.15-12,56.56-20.65C107.23,132.11,95.54,143.83,76.4,143.83Z"/></svg>