<svg id="Слой_1" data-name="Слой 1" xmlns="http://www.w3.org/2000/svg" viewBox="0 0 150 190"><defs><style>.cls-1{fill-rule:evenodd;}</style></defs><title>Монтажная область 55</title><path class="cls-1" d="M71.38,127a69.8,69.8,0,0,1,3.7,11c2.7,11-7.4,13.35-7.4,13.35L56.42,132.66l-19.77-5.57s1.76-10.64,10.6-10.26c3.61.15,7.6.53,11.06.93,2.58-3.89,5.94-9,9.55-14.31l-33-11.32s2-16.26,19.1-12.57c7.19,1.55,18.24,3.74,26.61,5.37,2.85-4,5.4-7.49,7.35-9.92C96,65,108.73,57.08,113.19,60.65S114,78.87,105.89,89C100,96.44,81.13,116.64,71.38,127Zm38.42-3.81C116,136.08,101,144.59,101,144.59l-14.63-23,14.28-17.13C103.73,110.7,107.09,117.62,109.8,123.23Z"/></svg>