<svg id="Слой_1" data-name="Слой 1" xmlns="http://www.w3.org/2000/svg" viewBox="0 0 150 190"><defs><style>.cls-1{fill-rule:evenodd;}</style></defs><title>Монтажная область 54</title><path class="cls-1" d="M125,125.37s-2.12,13.61-12.32,9.53c-7.06-2.83-25.4-10-36-14.09L91.6,100.53l5.07,3.77,5.94-5.67,4.79,3.61L104.33,110l4.29,3.19,5.88-5.59,4.78,3.6-3,7.66Zm-65.21,4.34c2.29,4.33,6.28,11.89,6.91,13.38,1.39,3.27-4.21,7.48-4.21,7.48l-12.9-9.43-2.85,3.17-8.92-6.72,2.26-3.39-12.35-9s2.29-6.23,5.9-5.94c2.07.16,10.62,1.4,15.15,2.07,2.62-3.87,5.54-8.17,8.58-12.6C53.6,103.2,35.16,76.46,32.15,72.53c-4.33-5.65,5.63-12,5.63-12l8.51,6.33,6.58-5.72,4.6,3.46-3.56,7.91,4.89,3.64,6.5-5.65L69.89,74l-3.51,7.82,6.41,4.76c21.47-30,29.69-23.07,29.69-23.07S110.77,69.94,87.34,98C78.7,108.28,68,120.43,59.82,129.71Z"/></svg>