<svg id="Слой_1" data-name="Слой 1" xmlns="http://www.w3.org/2000/svg" viewBox="0 0 150 190"><defs><style>.cls-1{fill-rule:evenodd;}</style></defs><title>Монтажная область 12</title><path class="cls-1" d="M127.1,137.83c.44-8.53-4.92-17.64-16.07-17.64-12.14,0-17.72,11.26-15.33,20.45l-42.29-.27c1.77-9.14-3.49-20.18-15.75-20.18-10.6,0-16.19,8.56-15.86,16.85L11,135.88,10.43,128l4.29-1.21v-9.13L37.66,93.76l45.86-.19,18.65,18.26,31.77,5.66.47,9.4,3.83.48-.06,5.27S135.11,137.68,127.1,137.83ZM57.93,100l-13.24.14-4.35,8,2.29,4L58,112Zm23.31-.24-17.4.18,1.82,12L92,111.65ZM37.7,124.18c15.68,0,16.08,24.15,1.09,24.15C21,148.33,22.32,124.18,37.7,124.18Zm.5,17.11c6.24,0,6.08-10.06-.45-10.06S30.79,141.29,38.2,141.29Zm72.88-17.11c15.68,0,16.07,24.15,1.09,24.15C94.39,148.33,95.7,124.18,111.08,124.18Zm.5,17.11c6.24,0,6.08-10.06-.46-10.06S104.17,141.29,111.58,141.29Z"/></svg>