<?xml version='1.0' encoding='utf-8'?>
<svg xmlns="http://www.w3.org/2000/svg" id="Слой_1" data-name="Слой 1" viewBox="0 0 150 190" fill="#ffffff"><defs><style>.cls-1{fill-rule:evenodd;}</style></defs><title>Монтажная область 8</title><path class="cls-1" d="M99,61.62c5.07.94,14,2.42,14,2.42l.68-2.35L101,45.11C88.81,45.11,78.4,53.91,78.4,64c0,11.1,5.92,25.76,5.92,25.76L54.05,96.2,39.73,90.61l-3.38,2.54S47,110.05,52.76,118.34c12.77,18.42,55.3,17,55.3-16.2,0-18.54-16.47-22.94-16.47-32.54C91.59,64.12,94.14,60.73,99,61.62ZM76.39,135.71l-6.67-1.22.06,12.56,7,6,10.54-6.09-12.18-5.71Zm17.44-3.07-6.66,1.73.06,8.89,13.35,5.17,4.12-9.94-12.09-1.06Z" fill="#ffffff" /></svg>