<?xml version='1.0' encoding='utf-8'?>
<svg xmlns="http://www.w3.org/2000/svg" id="Слой_1" data-name="Слой 1" viewBox="0 0 150 190" fill="#ffffff"><defs><style>.cls-1{fill-rule:evenodd;}</style></defs><title>Монтажная область 2</title><path class="cls-1" d="M98.94,115.93C90.71,135,60.51,135,52.1,116.49c-19.29-1.38-34.45-4.89-34.45-10.73v-.06c0-4.52,4.05-5.3,7-5.86,4.38-.84,11-1.91,14.41-11C51.13,57.18,99,55.9,112.75,89c4.16,10,10.13,10.51,13.63,10.86,2.08.2,6,.65,6,5.09C132.34,110.43,117.73,114.15,98.94,115.93Zm8.17-24.75c-11.91-27.8-53-26.28-62.37-.32-4.14,11.56-15.56,14.53-20.1,14.5,16.46,7.4,84.16,7,100.33-.39C121,104.6,112.52,103.83,107.11,91.18ZM50,103.88c1.79-33.17,49.27-31.67,51-.36A323.38,323.38,0,0,1,50,103.88ZM76.66,139c13.83,0,23.29-6.88,28.34-16.26,2.51-.28,4.78-.61,6.78-1-5.23,12.92-16.89,22.94-34.92,22.94-19.81,0-32.23-10.09-37.67-23.07,2,.3,4.28.57,6.74.81C51.19,131.91,61.35,139,76.66,139Z" fill="#ffffff" /></svg>