<?xml version='1.0' encoding='utf-8'?>
<svg xmlns="http://www.w3.org/2000/svg" id="Слой_1" data-name="Слой 1" viewBox="0 0 150 190" fill="#ffffff"><defs><style>.cls-1{fill-rule:evenodd;}</style></defs><title>Монтажная область 7</title><path class="cls-1" d="M107.28,78.2c12.82,30-1.56,52.65-25.85,52.65-17.16,0-24.34-11.14-27.25-22.11l-27.74,2.88S27,96.14,40.5,96.1L29,87.25s10.09-9.58,21.26-2.55l.31-14.43s11.25,2.4,14.56,17.31H87.93c-.08-8.32.95-14.62,2.7-19.28l-7.7-6.46S86,57.77,93.45,59.55l-5.68-7.72s9.64-3.57,13.9,2.5l-.31-6.28s9.51.46,10.43,11a20.17,20.17,0,0,1,8,7.47l-6.05,1.68C113.74,76.74,107.28,78.2,107.28,78.2ZM70.65,133.68l5.47,1.63.19,5.6,7.32,1.38L80,150.09,72.89,147l-6.79.82-1.76-4.31,5.94-2.39Zm17.9,1,5.53-1.9,3.09,7.53,8,.73-3.64,7.38-6.3-1.91-8,.73-1.39-3.45,5.21-2Z" fill="#ffffff" /></svg>