<?xml version='1.0' encoding='utf-8'?>
<svg xmlns="http://www.w3.org/2000/svg" id="Слой_1" data-name="Слой 1" viewBox="0 0 150 190" fill="#ffffff"><defs><style>.cls-1{fill-rule:evenodd;}</style></defs><title>Монтажная область 19</title><path class="cls-1" d="M111.62,111.25l-13.05,3.27,7.89-13.27,11,.35,6.16,24-4.45,1.82Zm-7.9-35.12-.63,22.36L94.7,111.71l-1.17,35.71H89.2l-4.61-32.86-26.37.32L46.6,125.37,44.75,147l-5.57.18L38,120.35,45.91,103,46,88.33c-4.14-2.29-10.46-2-10.46,16.75l-12.54,3c-5.06-31,19.16-32.67,27.22-23.91l26.55.34c0-11.31,11.89-38.24,42.08-25.23l1.83,28L113.06,90ZM74.94,118.66l-10.69,7.21,3.63,20.87-5.37.71-7.8-23.61,3-4.82Z" fill="#ffffff" /></svg>