<?xml version='1.0' encoding='utf-8'?>
<svg xmlns="http://www.w3.org/2000/svg" id="Слой_1" data-name="Слой 1" viewBox="0 0 150 190" fill="#ffffff"><defs><style>.cls-1{fill-rule:evenodd;}</style></defs><title>Монтажная область 53</title><path class="cls-1" d="M120.62,92.19c.74,1.64,4.28,9.49,4.9,12.43,1.26,5.88.56,10.62-4.3,11.19a33.16,33.16,0,0,0-11.17-20.46l2.61-6c-5-.52-8,5.26-8,5.26s5.91,5.19,7.5,12.22a53.78,53.78,0,0,1-7.29,7.75c.48,13.74-11.28,23.74-11.28,23.74s10.38,1.5,15,2.15c5.59.78,6.64,4.44,6,6.89l-35.43.08,4.64-14.71-7.12-10.31C67.18,130.6,62.1,147.9,13.64,147.9c0,0,.24-6.25,7.72-7.22,48.52-6.26,21.89-51.27,74.76-60.92,16.18-3,14.67-10,17.44-14.36-4.42-4.71-3-9.79-.2-13l6.46,7.52c-.34-5.32,2.19-9.84,5.94-9.74l2.55,11.46c4.22,1.39,7.48,5.44,8.05,13.88l-12.93-1.25C124.17,80,123,86.18,120.62,92.19Zm-41,41.6-5.74,13.75H67l8.78-19.66Z" fill="#ffffff" /></svg>