<?xml version='1.0' encoding='utf-8'?>
<svg xmlns="http://www.w3.org/2000/svg" id="Слой_1" data-name="Слой 1" viewBox="0 0 150 190" fill="#ffffff"><defs><style>.cls-1{fill-rule:evenodd;}</style></defs><title>Монтажная область 22</title><path class="cls-1" d="M112.84,114l3.67,3.51a40.07,40.07,0,0,1-12.07,8.9l2.32,3.86c-5.06,6.85-26.07,4.56-33.24-6.51-9.07,9.12-31,5-34.19-1.77l3.27-3.18A39.62,39.62,0,0,1,33,107.22l4.36-2.12S34.72,98,35.58,94.47L39.9,93.4s.61-7.59,3.78-11.7l5.08.88s.83-6.62,3.82-9.73l5.05,1.53s2.31-8.18,5.68-9.64l3.84,3.51c2-7.27,7.75-5.42,14.36-14.45,4.33,9.43,9.27,10.1,11.2,17.27l4.64-2.2c2.91,2.23,3,10.91,3,10.91l5.46-.4c2.15,3.75.8,10.88.8,10.88l5.69-.14c2.09,4.76-.07,11.76-.07,11.76l4.83,2.6C117,108.15,112.84,114,112.84,114ZM74.39,130.44l-2.5,19.49-8.28-1.31,6.81-17.89Z" fill="#ffffff" /></svg>