<?xml version='1.0' encoding='utf-8'?>
<svg xmlns="http://www.w3.org/2000/svg" id="Слой_1" data-name="Слой 1" viewBox="0 0 150 190" fill="#ffffff"><defs><style>.cls-1{fill-rule:evenodd;}</style></defs><title>Монтажная область 26</title><path class="cls-1" d="M120.88,87.71c-6.38-.65-15.22,2.44-16.9,5.76l-6.11-6.59c.43-4.54,4.89-13.37,14.89-13.77a9.69,9.69,0,0,0-2.69,5.69c2.89-1.09,6.5-.91,8.77.66a11.59,11.59,0,0,0-5,4.9A7.33,7.33,0,0,1,120.88,87.71ZM83,67.06v2.37l8.29,1.18-1,3c-4.58.66-9.63,2.74-9.72,8.16l-13.33.64c-17.57-31.72,27-39.4,25.2-16.58Zm-7.58-7.24a3.42,3.42,0,1,0,.08,6.84C79.91,66.66,79.94,59.82,75.43,59.82Zm26.89,73.49c4.61.58,13.08,5.05,13.48,14.84a9.77,9.77,0,0,0-5.7-2.69c1.1,2.9.92,6.5-.65,8.78a11.54,11.54,0,0,0-4.9-5,7.3,7.3,0,0,1-3.36,7c.6-5.79-1.58-13.13-4.47-15.69A28.41,28.41,0,0,1,79.92,148a13.76,13.76,0,0,1-10.5,9.92c1.89-3.23,1.76-7.69,1.52-10a32.51,32.51,0,0,1-17.67-7.32c-2.92,2.51-5.13,9.91-4.53,15.74a7.31,7.31,0,0,1-3.35-7,11.54,11.54,0,0,0-4.9,5c-1.57-2.28-1.75-5.88-.66-8.78a9.8,9.8,0,0,0-5.7,2.69c.39-9.53,8.43-14,13.1-14.79-10.85-18.2-1.21-46.73,28-46.73C103.17,86.63,112.14,115.1,102.32,133.31ZM29.12,88.58a7.33,7.33,0,0,1,7-3.35,11.59,11.59,0,0,0-4.95-4.9c2.27-1.57,5.88-1.75,8.77-.66A9.74,9.74,0,0,0,37.24,74c10,.41,14.83,9.24,15.27,13.77l-6.69,6.2C44.15,90.63,35.5,87.92,29.12,88.58Z" fill="#ffffff" /></svg>