<?xml version='1.0' encoding='utf-8'?>
<svg xmlns="http://www.w3.org/2000/svg" id="Слой_1" data-name="Слой 1" viewBox="0 0 150 190" fill="#ffffff"><defs><style>.cls-1{fill-rule:evenodd;}</style></defs><title>Монтажная область 21</title><path class="cls-1" d="M73.09,91.9c15.75-9.6,7-52.17,46.85-40.27,1.25,4,3.38,6.65,8.49,7.5,7.24,1.21,9.67,12.93,4.94,21.69l-27.88.59-1.56,6.06c3.25,1.27,8.57,3.36,9.92,3.93,4.83,2,4.33,6.74-1.52,9.8l-2-3.78-9,.24-2.2,8.58c4.69,15-3.33,21.77-13.37,26.27a16.45,16.45,0,0,0,9.31,8.11c5.09,1.9,6.28,4.61,5.93,6.81H81.53l1.4-4.38-6.17-9.8.14-8.63H63.35c-9.45,0-43.64-1.21-49.16-42.82l2.9-.77C27.64,99.65,59.33,100.29,73.09,91.9Zm47-26c3.5,0,3.53-5.46-.07-5.46A2.73,2.73,0,1,0,120.07,65.87Zm-11.25,1.44c6.18,0,5.72-8.45.38-8.45S103.61,67.31,108.82,67.31ZM71.67,128.45s-1.67,9.22.55,11.64,4,6,3.59,7.46l-18.53-.12L64,128.12Z" fill="#ffffff" /></svg>