<?xml version='1.0' encoding='utf-8'?>
<svg xmlns="http://www.w3.org/2000/svg" id="Слой_1" data-name="Слой 1" viewBox="0 0 150 190" fill="#ffffff"><defs><style>.cls-1{fill-rule:evenodd;}</style></defs><title>Монтажная область 22</title><path class="cls-1" d="M104.08,147.5c-10.12,0-39.4-.12-67.06-.12-19,0-24.9-6.34-26.23-14.23,67.15,0,94.34,2.34,128.42-9C129.29,139.07,115.71,147.5,104.08,147.5ZM33,127.76l4.61-10.83c22.94,0,42-2.26,49.24-13.79L76.21,98.78l-3.38,2.69c-6-3-3.79-9.47,3-9.47,22.06,0,46.62,7.77,62.48,26.24C103.15,128,78.68,128,33,127.76Zm93.62-12.82A22.64,22.64,0,0,0,117.2,108C106.15,116.23,118.16,119.74,126.66,114.94Z" fill="#ffffff" /></svg>