<?xml version='1.0' encoding='utf-8'?>
<svg xmlns="http://www.w3.org/2000/svg" id="Слой_1" data-name="Слой 1" viewBox="0 0 150 190" fill="#ffffff"><defs><style>.cls-1{fill-rule:evenodd;}</style></defs><title>Монтажная область 16</title><path class="cls-1" d="M46.27,131l4.51,16.81,8.3-.27-1.9-16.07Zm41.22-18.33L83.62,95.24c-6-2-10.07-7.36-10.07-7.36L76,83l-5.4-6.87S51.57,76,46.8,76c-8.22,0-11.4,3.67-11.4,11.07v19.34l-6.93,12.12,3.88,28.86,8.15.14,1.79-20.83,28.79.8,1.37,19.8,9.77.07,1.35-20.17h7.68l2,19.41L103,147l-1.75-33.92Zm52.39-53-2.4-.92s-10.56,12.37-26.06,17.48H91.92c-14.66-6.49-23.4-18.92-23.4-18.92L66,57.92s3.81,14.69,18.9,26l-5.62,2.61s1.73,4.91,8.38,4.93l4.5,16.89,18.59-.18,4.77-16.71c7.14.28,9-4.93,9-4.93l-6.09-2.82C134.64,73.91,139.88,59.6,139.88,59.6Z" fill="#ffffff" /></svg>