<svg id="Слой_1" data-name="Слой 1" xmlns="http://www.w3.org/2000/svg" viewBox="0 0 150 190"><defs><style>.cls-1{fill-rule:evenodd;}</style></defs><title>Монтажная область 5</title><path class="cls-1" d="M29.3,135.65l8.89-.19,1-31.31-5.89-6.74L57,97.62l-4.08,6.53,2.9,30.94,11-.23,1.86-30.71-5.56-6.48,24.21.21-4.87,6.27L85,134.47l12.31-.26.91-30.06-5.33-6.22,23.41.21-4.3,6,2.62,29.7,8.21-.17v12.79l-91.55,1Zm0-42.33-1-5.9L73.6,60.84l48.23,24.61-1,6.89ZM74,72.65c-8.21,0-8.91,12.8.58,12.8C82.61,85.45,82.4,72.65,74,72.65Z"/></svg>