<svg id="Слой_1" data-name="Слой 1" xmlns="http://www.w3.org/2000/svg" viewBox="0 0 150 190"><defs><style>.cls-1{fill-rule:evenodd;}</style></defs><title>Монтажная область 2</title><path class="cls-1" d="M42.91,124.88,30.05,129.2l-3.17-3.94L62.13,84.75c-.35-28.41,35-29.92,39.6-4.93l11.4,5.24-9.88,7C104.33,112.68,96.66,136.6,42.91,124.88ZM79,75c-6.08,0-6.37,9.25.1,9.25C85.05,84.24,85.09,75,79,75ZM58.55,131.27l5.18-.36.17,8.72,9.53,2.54-5.34,9.15-7.42-5.89-7.56,2.4-1.67-4.08,6.76-3.88Zm21.79-.6,5.23-.87,2.6,8,11.67.69-6.46,9.86-7-4.68-7.53.69-1.32-3.26,4.94-1.91Z"/></svg>