<svg id="Слой_1" data-name="Слой 1" xmlns="http://www.w3.org/2000/svg" viewBox="0 0 150 190"><defs><style>.cls-1{fill-rule:evenodd;}</style></defs><title>Монтажная область 54</title><path class="cls-1" d="M105.73,113.81l.31,33.42-9.5.18-3.09-33.53-4.46,0-1.7,33.32-9.51.18-1-33.44-22.42.13,0,32.91-13.52.14L41.07,82,23.4,66.55,26.94,55,9,44.72,31.65,26.51l14,28.82L37,63.93l6.3,8.21,5.56-10.53L60,68.06l3.07-10.25,12.55,10,6.7-6.65,13,13.29,7.13-.89,12.45-7.22,2.8,47.38ZM91.49,84.31c-7,0-7.34,10.67.12,10.67C98.43,95,98.48,84.31,91.49,84.31ZM106.63,86c-4.93,0-5.17,7.5.09,7.5C111.52,93.47,111.55,86,106.63,86ZM69.88,119.68l0,27-10.48.22,0-27.68Z"/></svg>