<svg id="Слой_1" data-name="Слой 1" xmlns="http://www.w3.org/2000/svg" viewBox="0 0 150 190"><defs><style>.cls-1{fill-rule:evenodd;}</style></defs><title>Монтажная область 14</title><path class="cls-1" d="M105,147.48c-13.53,0-31.07-.09-42.39-.09-8.49,0-13.83-4.74-16-10.7H39.16c-20.35,0-22.63-27.28-6.25-33.19C32.81,89.79,41.65,76,59.59,76c10.19,0,17.61,4.42,22.13,10.74.43,0,.87,0,1.32,0,13.09,0,21.6,7.3,25.28,16.55C134.83,106,135.15,147.48,105,147.48Zm-1.16-37.14c-1.56-9-8.54-17.09-20.56-17.09-15.82,0-21.82,14.59-19.31,26.35-16.21,0-14.66,21.55-.47,21.55,10,0,30.07-.34,42.07-.34C126.54,140.81,126.32,108.28,103.84,110.34Z"/></svg>