<svg id="Слой_1" data-name="Слой 1" xmlns="http://www.w3.org/2000/svg" viewBox="0 0 150 190"><defs><style>.cls-1{fill-rule:evenodd;}</style></defs><title>Монтажная область 5</title><path class="cls-1" d="M105.57,101,84,93.08l7.27-32.53L98.94,71l15.53,2.26,3,7.14s9.5,3.53,10.9,4.1C130.35,95.42,116.06,105.13,105.57,101Zm-8,39.28c2,0,4.1,2.49,4.1,6.47H86.81l-.71-19.27-30.36-.91-9,13.75A5.6,5.6,0,0,1,52,146.75H33.56L47,93.64,51,93.53l2.77,9.86,28.94-6.2,23,10.68Zm-31.95-9.05-5.86,9.09a5.6,5.6,0,0,1,5.33,6.43c-1.62,0-8.58,0-8.56,0,0-4-1.46-7.33-4-7.33L57,130.26ZM82.34,146.9H76.46l-.53-15.67,7,.27Z"/></svg>