<svg id="Слой_1" data-name="Слой 1" xmlns="http://www.w3.org/2000/svg" viewBox="0 0 150 190"><defs><style>.cls-1{fill-rule:evenodd;}</style></defs><title>Монтажная область 33</title><path class="cls-1" d="M130.68,107.94l.06,29.11-7.36.16c-.14-7.65-5.18-15.37-15.14-15.37S93,130,93.34,137.86l-30.4.66-7.16-15.81,33,.35-.3-18.6,5.1-20.14c26.52-1.61,30.17.08,32.71,7.75l-18.52.3,3.06,14ZM80.39,118.42H29.82L23.47,94l-6.81-3.65.83-6.19,57.88-.38,6.47-13.45,14.82.52.55,6.5-7.37,1.33ZM44.92,125.6c14.76,0,15.13,22.73,1,22.73C29.21,148.33,30.44,125.6,44.92,125.6Zm.47,16.11c5.88,0,5.72-9.48-.43-9.48S38.42,141.71,45.39,141.71Zm62.9-16.11c14.76,0,15.13,22.73,1,22.73C92.58,148.33,93.81,125.6,108.29,125.6Zm.46,16.11c5.88,0,5.73-9.48-.42-9.48S101.78,141.71,108.75,141.71Z"/></svg>