<svg id="Слой_1" data-name="Слой 1" xmlns="http://www.w3.org/2000/svg" viewBox="0 0 150 190"><defs><style>.cls-1{fill-rule:evenodd;}</style></defs><title>Монтажная область 4</title><path class="cls-1" d="M76.54,149.16c-61.79,0-59-88.29-1-88.29C133.34,60.87,133,149.16,76.54,149.16Zm30.94-44.33-7.73-2.94-1.26,1.91,3,3.15,2.32.35,1,3.36-7.3,3.69-5-8.71-1.73,3.92,3.77,8.29,4.63,1.35-7.46,4L82,137.14l-8.26.65-1.81-8L73.3,118l-9.47-2.52L60.71,108l1.49-7.2,9-3.69,8.51,4.87,4.49-1.47,6.69,1.81,1.52-8.53L83.8,90.94l-.1,5.56-5.47-.25-.47-5.88L71,91.86l.51-5.17-2.88-3.34,4.38-4,7.12,4,2.23-4.73L88,76.22l3.76,1.66,3.82-.77,1.65-4C91.5,69.17,84.27,66.8,75.48,66.8a45,45,0,0,0-8.32.76l1.06,6.07-12.7,9-11.15-.69a37.31,37.31,0,0,0-2.93,4.84l2.34,21.89,6.88,8.84-7.06,10c6.29,9.21,17.13,15.72,32.73,15.72,22.46,0,34.65-16.16,36.42-33.61Z"/></svg>