<svg id="Слой_1" data-name="Слой 1" xmlns="http://www.w3.org/2000/svg" viewBox="0 0 150 190"><defs><style>.cls-1{fill-rule:evenodd;}</style></defs><title>Монтажная область 8</title><path class="cls-1" d="M112.39,86.11l-2.5,3.15-9.22.68c1.11,17.43-3,25.73-11.63,30.78l1.37,18.08c5.22,1.58,6.33,5,6,7.72l-12.82.21c-2.24-14.17-6.76-26.95-11.9-31l-2.18,2c4.37,5.94,2,8.61-3.75,20.38,7.8.37,14.4,2.3,14.11,8.66l-40.61.66c-2.6-2-2.48-8.68,3-11.44-7.86-7.94-2.16-40.62,41.46-47.19l8.63-17.4c-2.13-10.65-.48-23.69,3.43-28.87,8.49,11.13,10,18.35,5.91,30.69A21.16,21.16,0,0,1,112.39,86.11ZM87.14,70.53c-10.61-10.75-10.75-15.8-5.33-26.88,3.56,1.43,5.52,7,6.22,9.4C86.5,58.85,87.14,70.53,87.14,70.53Z"/></svg>