<svg id="Слой_1" data-name="Слой 1" xmlns="http://www.w3.org/2000/svg" viewBox="0 0 150 190"><defs><style>.cls-1{fill-rule:evenodd;}</style></defs><title>Монтажная область 4</title><path class="cls-1" d="M110.4,80.92c0,3.85,6.35,36.27-17.57,44.49l4,13.75,13.06-.5,2.78,8.12H58.23l3-6.26,8.75-.34-5-13.25-10-.33L26.69,147,14.17,138.2l39.65-25.28S68.66,87.65,82.34,81.39c6.41-33.34,30.05-23,32.29-16.07l13.85,5.62-16.36,4.61A12.08,12.08,0,0,0,110.4,80.92ZM78.68,139.85l9.45-.36-4.61-12.3c-1,.07-2.14.11-3.26.11s-3,0-5.31-.09Zm24.26-51.42-11.24.69c7.85,10.27-4.72,28-16.7,29.24l.3,1.81C106.45,121.54,105.26,97.46,102.94,88.43Z"/></svg>