<svg id="Слой_1" data-name="Слой 1" xmlns="http://www.w3.org/2000/svg" viewBox="0 0 150 190"><defs><style>.cls-1{fill-rule:evenodd;}</style></defs><title>Монтажная область 38</title><path class="cls-1" d="M111.67,147.2l-35.92.17c5.91-4.59,8.67-11.25,7-22.06,18.92-2.65,29.49-28.23,28.71-57.27l4.9.1a98.22,98.22,0,0,1,0,29.35c-.73,4.11,4.87,4.61,6.19,1.1,1.75-4.66,4.75-20.41,4.75-30l5.54-.16c0,33.8-8.49,57.93-22.22,72.47ZM59.86,110.74c-9.37,2.56-12.51,10.45-10.73,17.47,2.16,8.57,8.74,10.28,14,8.79,4.3-1.23,6.49-5.37,5.28-10.19s-5.13-5-7.27-4.38c-5.11,1.45-.73,7.9,2,3.89,1.3.17,3.07,5.59-.84,6.7-2.79.8-7.25.07-8.79-6-1.38-5.49,2.14-10.11,7.76-11.72,7-2,14.57,3.34,16.31,10.24,3.61,14.32-8.06,23.26-20.06,22.7L21,147.67l17.61-11.79A30.53,30.53,0,0,1,36,128.44c-8.89-41,50.53-51.3,62.31-19.71-4.33,6.66-10.15,10.5-17,11.68C77.6,112.15,67.81,108.57,59.86,110.74Z"/></svg>