<svg id="Слой_1" data-name="Слой 1" xmlns="http://www.w3.org/2000/svg" viewBox="0 0 150 190"><defs><style>.cls-1{fill-rule:evenodd;}</style></defs><title>Монтажная область 5</title><path class="cls-1" d="M124.71,114.7l-1.79,7.47L112.72,119l6.67,9.38-6.16,3.13-6.43-14.34-7.47-2.32,5.11,8.32-5.52,3.3-5.1-13.34-3-.93-7.19,2-1.85,7.18.57,2,13.38,4.52-2.08,5.41-9.86-4.9,2.12,7.45,16.85,7.2-3.15,6-12.2-7.89L90.78,153l-6.63,2-2.46-10.7-5,10.83-6.15-3.67,9.73-13.15-1.87-8.14-5.25,8.89-4.74-3.71L77.24,125,76.56,122l-4.87-5.32-7.45,2.49-.73.75,2,14.44-5.73.9-.33-11.16L53.67,130l2.18,18.08-6.75.26.73-14.41-8.59,8.76L36.16,138l8.14-7.5-11.95,1.13.1-7.16,16.38,1.87,6.29-5.79-10.62,0,.84-6,14.44,1.68,1.47-1.35,2.18-7-5.72-4.94-1.44-.37-11.54,8.94-3.64-4.51L50.6,101l-8-2L28.09,109.94l-3.61-5.72,12.84-6.58-11.89-3L27,87.84l10.58,3.27-7-9.77,6.26-3.5,6.55,15.09,8.11,2.51L46.3,86.3l5.59-2.24,5.73,13.27.74.23L66,95.47l1.75-7.06-.19-.66L53.81,81.91l1.91-5.81,10.09,5.57L63.55,74,47.34,67.23l2.87-6.3,11.73,7.58L58.55,57l7.36-2.18,2.34,10.54L73.09,54.8l5.78,3.77L69.59,71.4l1.65,7.4,4.81-8.46,5.61,3.14L72.77,85.7,73.28,88,78,93.66,85.49,91l.68-.71L83.92,75l6.43-1.13L90,86.22l6.16-6.54L93.84,62.15l6.89-.67L100,75.53l8.27-8.77L113.86,72,106,79.31l11.47-1.08-.37,6.89-15.63-1.6L95.1,89.43l10.4-.87.09,6.43L90.78,93.42l-1.13,1.06-2.48,7.74,4.69,4.63,2.42.57,11.15-9.73,4.19,5-10.07,6,7.92,1.9,14-10.71,4,5.64L113,111.91ZM81.2,98.82l-4.59.75-4.3-3-1.89,3.73-4.7,1.93L69,106.6l-.59,4.65,4.94-.35,3.84,3.18,2.15-4.63,4.56-1.72L81,103.66Z"/></svg>