<svg width="40" height="40" viewBox="0 0 40 40" fill="none" xmlns="http://www.w3.org/2000/svg">
<path d="M20 36.3018C17.7334 36.3018 15.6064 35.8721 13.6191 35.0127C11.6318 34.1641 9.88623 32.9878 8.38232 31.4839C6.87842 29.98 5.69678 28.2344 4.8374 26.2471C3.98877 24.2598 3.56445 22.1328 3.56445 19.8662C3.56445 17.5996 3.98877 15.4727 4.8374 13.4854C5.69678 11.498 6.87842 9.75244 8.38232 8.24854C9.88623 6.73389 11.6318 5.55225 13.6191 4.70361C15.6064 3.85498 17.7334 3.43066 20 3.43066C22.2666 3.43066 24.3936 3.85498 26.3809 4.70361C28.3682 5.55225 30.1138 6.73389 31.6177 8.24854C33.1216 9.75244 34.2979 11.498 35.1465 13.4854C36.0059 15.4727 36.4355 17.5996 36.4355 19.8662C36.4355 22.1328 36.0059 24.2598 35.1465 26.2471C34.2979 28.2344 33.1216 29.98 31.6177 31.4839C30.1138 32.9878 28.3682 34.1641 26.3809 35.0127C24.3936 35.8721 22.2666 36.3018 20 36.3018ZM20 33.5625C21.8906 33.5625 23.6631 33.208 25.3174 32.499C26.9717 31.79 28.4272 30.8071 29.6841 29.5503C30.9409 28.2935 31.9238 26.8379 32.6328 25.1836C33.3418 23.5293 33.6963 21.7568 33.6963 19.8662C33.6963 17.9756 33.3418 16.2031 32.6328 14.5488C31.9238 12.8838 30.9409 11.4282 29.6841 10.1821C28.4272 8.92529 26.9717 7.94238 25.3174 7.2334C23.6631 6.52441 21.8906 6.16992 20 6.16992C18.1094 6.16992 16.3369 6.52441 14.6826 7.2334C13.0283 7.94238 11.5728 8.92529 10.3159 10.1821C9.05908 11.4282 8.07617 12.8838 7.36719 14.5488C6.6582 16.2031 6.30371 17.9756 6.30371 19.8662C6.30371 21.7568 6.6582 23.5293 7.36719 25.1836C8.07617 26.8379 9.05908 28.2935 10.3159 29.5503C11.5728 30.8071 13.0283 31.79 14.6826 32.499C16.3369 33.208 18.1094 33.5625 20 33.5625Z" fill="#BCBCBC"/>
<path d="M20 4.60441C22.0218 4.60441 24.0238 5.00262 25.8916 5.77633C27.7595 6.55003 29.4567 7.68406 30.8863 9.11367C32.3159 10.5433 33.45 12.2405 34.2237 14.1084C34.9974 15.9762 35.3956 17.9782 35.3956 20C35.3956 22.0218 34.9974 24.0238 34.2237 25.8916C33.45 27.7595 32.3159 29.4567 30.8863 30.8863C29.4567 32.3159 27.7595 33.45 25.8916 34.2237C24.0238 34.9974 22.0218 35.3956 20 35.3956L20 20L20 4.60441Z" fill="#BCBCBC"/>
</svg>
