<?xml version='1.0' encoding='utf-8'?>
<svg xmlns="http://www.w3.org/2000/svg" id="Слой_1" data-name="Слой 1" viewBox="0 0 150 190" fill="#ffffff"><defs><style>.cls-1{fill-rule:evenodd;}</style></defs><title>Монтажная область 52</title><path class="cls-1" d="M34.89,94.15a39.64,39.64,0,0,0-.08,4.6c26.26,4.24,79.51,12.5,95.29.08-.72,10.71-8,20.71-21.3,23.6-16.14,3.51-36.7-1-53.23-6.31L39,129.9l-8.83-4.14,3-17.87c-3-1.23-5.18-2.13-6.11-2.42-5.44-1.7-5.78-16.53,0-18.57.87-.3,2.61-1.13,5-2.28L31.2,65.15l10-1.83L51.9,76c16.37-6.25,37.69-11.92,54.81-7,12.9,3.74,20.3,12.28,22.64,21.5C114.19,102.38,61,97.69,34.89,94.15ZM101.24,128c.2,8.65.3,12.71-15.87,12.37S69.21,134.74,69.61,126Z" fill="#ffffff" /></svg>