<?xml version='1.0' encoding='utf-8'?>
<svg xmlns="http://www.w3.org/2000/svg" id="Слой_1" data-name="Слой 1" viewBox="0 0 150 190" fill="#ffffff"><defs><style>.cls-1{fill-rule:evenodd;}</style></defs><title>Монтажная область 43</title><path class="cls-1" d="M95.11,109.07l4.81,38.41H51.83l4.36-37.86L32.11,110c-1-68,85.76-66.11,85.78-1.19Zm-3.18,30.76-4.32-30.65-24.23.34-3,30.86ZM49.9,90.2c-7.89,0-8.27,12,.13,12C57.71,102.21,57.76,90.2,49.9,90.2ZM64,70.35c-10.73,0-11.25,16.33.18,16.33C74.58,86.68,74.65,70.35,64,70.35ZM76.52,91.87c-5.67,0-5.94,8.63.1,8.63C82.14,100.5,82.17,91.87,76.52,91.87ZM89.63,75.22c-7.89,0-8.27,12,.14,12C97.45,87.23,97.5,75.22,89.63,75.22ZM101.88,92.5c-6.19,0-6.49,9.42.1,9.42C108,101.92,108,92.5,101.88,92.5Z" fill="#ffffff" /></svg>