<?xml version='1.0' encoding='utf-8'?>
<svg xmlns="http://www.w3.org/2000/svg" id="Слой_1" data-name="Слой 1" viewBox="0 0 150 190" fill="#ffffff"><defs><style>.cls-1{fill-rule:evenodd;}</style></defs><title>Монтажная область 35</title><path class="cls-1" d="M118.63,110.13l-11.92,6.59,6,8.26-7.61,19.23L95,144.54s-9.91-3.17-11-24.66l-3.75.06c1.14,7.94,1.76,20.4-5.59,20.4s-6.39-12.28-5-20.25l-4,.06c-1.19,21.25-11,24.39-11,24.39l-9.78-.33L37,124.11l5.39-7.36-10.5-5.81L21.68,84.7s1.63-6,13.28-6c8.84,0,23.54,7.18,30.12,21.06L69,97.59c-3.77-12.81-8.85-22.36-17.59-28.21l2.57-3c10.76,7.33,16.28,16.35,19.75,26.42l2.11.19c3.46-10.09,9-19.12,19.75-26.45l2.57,3C89.42,75.4,84.33,85,80.56,97.82l3.71,2.36c6.49-14.13,21.37-21.45,30.29-21.45,11.66,0,13.76,6.91,13.76,6.91Z" fill="#ffffff" /></svg>