<?xml version='1.0' encoding='utf-8'?>
<svg xmlns="http://www.w3.org/2000/svg" id="Слой_1" data-name="Слой 1" viewBox="0 0 150 190" fill="#ffffff"><defs><style>.cls-1{fill-rule:evenodd;}</style></defs><title>Монтажная область 9</title><path class="cls-1" d="M135,133.52c-6.54,1.32-7.34-13.29-21.61-13.29-9.59,0-15.3,4.87-15.82,14.75L56.5,136.23c.6-21.23-31.45-21-32.19-.41l-13.62-2.33v-8.08l6.45-2.11c12.14-30.54,38.56-34.36,67-31.58l8.75,14.91c18.22,0,40.11,2.48,40.11,16.57l6.35,2-.54,7.44C137.71,132.91,136.29,133.26,135,133.52ZM43.54,104.11c-2.16,1.48,0,4,0,4l17.4-.42V98.17C53.29,99.1,48.23,100.9,43.54,104.11Zm36.28-6.79c-4.91,0-9.13.1-12.83.31l1.51,9.83,16.51-.4Zm-39.26,26.9c15.69,0,16.08,24.16,1.09,24.16C23.88,148.38,25.18,124.22,40.56,124.22Zm.5,17.12c6.25,0,6.08-10.07-.45-10.07S33.65,141.34,41.06,141.34Zm72.38-17.12c15.68,0,16.07,24.16,1.08,24.16C96.74,148.38,98.05,124.22,113.44,124.22Zm.49,17.12c6.25,0,6.08-10.07-.45-10.07S106.52,141.34,113.93,141.34Z" fill="#ffffff" /></svg>