<?xml version='1.0' encoding='utf-8'?>
<svg xmlns="http://www.w3.org/2000/svg" id="Слой_1" data-name="Слой 1" viewBox="0 0 150 190" fill="#ffffff"><defs><style>.cls-1{fill-rule:evenodd;}</style></defs><title>Монтажная область 2</title><path class="cls-1" d="M106.25,77.32,119,66.47l4.42,5.75-13.84,9.2Zm8.39,58.07c-15.26,19.64-65.13,16.53-79,.1-7-8.26-5-22.82,6-25.74,4,14,20.17,18.94,35.3,18.94s27-5.85,29.27-17C116.93,114.09,122.69,125,114.64,135.39ZM90.79,66.84l6.95-14.56,6.63,3.25L96.11,69.7Zm-.32,33c6.29.86,9.86,4.32,9.86,9.82,0,8-12.94,13.13-23.56,13.13-12.79,0-28.86-6-28.86-16.39,0-13.06,23.79-13.48,21.68-29.22,9.74,1.64,14.47,6.34,14.47,13.77a12.28,12.28,0,0,1-6.51,11.11L80.44,106S88.09,101.15,90.47,99.83ZM71.55,63.12l-.94-16.56,7-.19L77,63.47ZM43.71,56l6.09-3.8,8,14.3-4.39,3ZM24.48,72.92l4.59-6L41.3,77.35l-2.81,4.42Z" fill="#ffffff" /></svg>