<?xml version='1.0' encoding='utf-8'?>
<svg xmlns="http://www.w3.org/2000/svg" id="Слой_1" data-name="Слой 1" viewBox="0 0 150 190" fill="#ffffff"><defs><style>.cls-1{fill-rule:evenodd;}</style></defs><title>Монтажная область 25</title><path class="cls-1" d="M92.85,107.35l-13.28,33c4.31.81,5.39,4.41,5.15,7.24l-18-.17-1.34-23.44-8.66,3L55,140.25c7.38,2.47,4.65,7.85,4.65,7.85L43.91,148s-5.55-7.86-15.53-21.69c-9.64-13.35-10.79-20-10.79-27.74,0-26.85,33.72-29.84,59.11-18.39,5.48,0,16,.28,25.43.6a6.63,6.63,0,0,1,5.56-3.74l2.3,4,.85,0c8.78.35,11.67,2.8,12.33,6.09l9,1.83s1.71,6.54-4.31,8.43C119.81,100,99.83,105.46,92.85,107.35Zm-54.74,40.4-14.89-.19,1.68-17.11Zm70.62-24.15c4.87,5-.87,16.19-.87,16.19l-3-.62s-1.28-5.6-6.32-6.76l-8.21-1.89L96.44,111Z" fill="#ffffff" /></svg>