<?xml version='1.0' encoding='utf-8'?>
<svg xmlns="http://www.w3.org/2000/svg" id="Слой_1" data-name="Слой 1" viewBox="0 0 150 190" fill="#ffffff"><defs><style>.cls-1{fill-rule:evenodd;}</style></defs><title>Монтажная область 1</title><path class="cls-1" d="M35.66,135.49c-7-8.25-5-22.81,6-25.74,4,14,20.18,18.95,35.31,18.95s27-5.85,29.27-17c10.69,2.44,16.45,13.39,8.4,23.74C99.38,155,49.51,151.92,35.66,135.49Zm41.11-12.71c-12.79,0-28.87-6-28.87-16.39,0-13.06,23.8-13.48,21.69-29.22,9.74,1.64,14.47,6.34,14.47,13.77a12.28,12.28,0,0,1-6.51,11.11L80.44,106s7.65-4.84,10-6.15c6.29.85,9.86,4.32,9.86,9.82C100.33,117.69,87.39,122.78,76.77,122.78Z" fill="#ffffff" /></svg>