<?xml version='1.0' encoding='utf-8'?>
<svg xmlns="http://www.w3.org/2000/svg" id="Слой_1" data-name="Слой 1" viewBox="0 0 150 190" fill="#ffffff"><defs><style>.cls-1{fill-rule:evenodd;}</style></defs><title>Монтажная область 61</title><path class="cls-1" d="M104.93,113.41c4.39-8.11,5.58-12.8,6-18.41,4.79,4.71,8.93,15.07,3.71,28.91C108.86,122.42,106.45,116.58,104.93,113.41ZM64.62,98.34a77,77,0,0,1-15.91-9c1.86-2.48,7.9-10.21,13.22-13a74.48,74.48,0,0,1,13.21,6.33A48.35,48.35,0,0,0,64.62,98.34Zm-9.23.27c7.6,4.09,12,6.43,12,13.77-2.77,2.61-5.57,4.69-9.33,5.56a30.74,30.74,0,0,0-19,13.57C30.86,119.08,30.42,101,41,89.42A85.29,85.29,0,0,0,55.39,98.61ZM102,108.4c-5.23-7.69-11.48-10.26-11.48-10.26s-9.08.48-18.72,9.92a14.43,14.43,0,0,0-3.27-6.3c1.34-3.68,6.81-16.42,20.74-23.11,10,3.12,14.85,16.51,16.12,20.58A37.27,37.27,0,0,1,102,108.4ZM59.19,122.71c6.37-1.46,10.48-5.58,14.46-9.56,4.4-4.41,8.57-8.58,15.9-9.9,6.9,4.27,9.25,8.9,11.52,13.39s4.68,9.18,11.63,11.58c-13.53,26.45-53.45,25.47-70.33,7.46A25.68,25.68,0,0,1,59.19,122.71Z" fill="#ffffff" /></svg>