<svg width="40" height="40" viewBox="0 0 40 40" fill="none" xmlns="http://www.w3.org/2000/svg">
<g clip-path="url(#clip0_1_2)">
<path d="M5.01953 34.8984C4.78516 34.6771 4.62891 34.4167 4.55078 34.1172C4.48568 33.8177 4.49219 33.5182 4.57031 33.2188C4.64844 32.9193 4.79818 32.6589 5.01953 32.4375L17.5195 19.918L5.01953 7.41797C4.79818 7.19661 4.64844 6.9362 4.57031 6.63672C4.50521 6.33724 4.50521 6.03776 4.57031 5.73828C4.64844 5.4388 4.79818 5.17839 5.01953 4.95703C5.24089 4.72266 5.5013 4.57292 5.80078 4.50781C6.10026 4.42969 6.39974 4.42969 6.69922 4.50781C7.01172 4.57292 7.27865 4.72266 7.5 4.95703L20 17.457L32.5 4.95703C32.7214 4.72266 32.9818 4.57292 33.2812 4.50781C33.5807 4.42969 33.8802 4.42969 34.1797 4.50781C34.4792 4.57292 34.7461 4.72266 34.9805 4.95703C35.2018 5.17839 35.3516 5.4388 35.4297 5.73828C35.5078 6.03776 35.5078 6.33724 35.4297 6.63672C35.3516 6.9362 35.2018 7.19661 34.9805 7.41797L22.4805 19.918L34.9805 32.4375C35.2018 32.6589 35.3451 32.9193 35.4102 33.2188C35.4883 33.5182 35.4883 33.8177 35.4102 34.1172C35.3451 34.4167 35.2018 34.6771 34.9805 34.8984C34.7591 35.1328 34.4922 35.2826 34.1797 35.3477C33.8802 35.4258 33.5807 35.4258 33.2812 35.3477C32.9818 35.2695 32.7214 35.1198 32.5 34.8984L20 22.3984L7.5 34.8984C7.27865 35.1198 7.01823 35.2695 6.71875 35.3477C6.41927 35.4258 6.11979 35.4258 5.82031 35.3477C5.52083 35.2695 5.25391 35.1198 5.01953 34.8984Z" fill="#BCBCBC"/>
</g>
<defs>
<clipPath id="clip0_1_2">
<rect width="40" height="40" fill="white"/>
</clipPath>
</defs>
</svg>
