<svg width="40" height="40" viewBox="0 0 40 40" fill="none" xmlns="http://www.w3.org/2000/svg">
<path d="M10.375 19.7188C10.375 19.5208 10.4115 19.3385 10.4844 19.1719C10.5573 18.9948 10.6667 18.8333 10.8125 18.6875L23.2031 6.5625C23.4844 6.29167 23.8229 6.15625 24.2188 6.15625C24.4896 6.15625 24.7292 6.21875 24.9375 6.34375C25.1562 6.46875 25.3281 6.64062 25.4531 6.85938C25.5885 7.06771 25.6562 7.30729 25.6562 7.57812C25.6562 7.96354 25.5156 8.30208 25.2344 8.59375L13.8594 19.7188L25.2344 30.8438C25.5156 31.1354 25.6562 31.474 25.6562 31.8594C25.6562 32.1302 25.5885 32.3698 25.4531 32.5781C25.3281 32.7969 25.1562 32.9688 24.9375 33.0938C24.7292 33.2188 24.4896 33.2812 24.2188 33.2812C23.8229 33.2812 23.4844 33.1406 23.2031 32.8594L10.8125 20.75C10.6667 20.6042 10.5573 20.4479 10.4844 20.2812C10.4115 20.1042 10.375 19.9167 10.375 19.7188Z" fill="#C6C6C6"/>
</svg>
